<svg xmlns="http://www.w3.org/2000/svg" width="359.2" height="80.732" viewBox="0 0 359.2 80.732">
    <defs>
        <style>
            .cls-1{fill:#fff}
        </style>
    </defs>
    <g id="BR_logo" transform="translate(199.109 525.199)">
        <g id="Group_647" data-name="Group 647" transform="translate(-199.109 -525.199)">
            <g id="Group_646" data-name="Group 646" transform="translate(16.24 19.138)">
                <path id="Path_172" d="M-136.778-461.547c2.27-1.156 3.689-3.192 3.357-6.586-.445-4.626-4.626-6.511-9.507-6.52v-6.547h-3.913v6.545h-3.124v-6.545h-3.912v6.545h-7.894v4.078s2.891-.055 2.843 0a2.022 2.022 0 0 1 2.252 1.715v17.62a1.383 1.383 0 0 1-1.471 1.3c.05.044-2.846 0-2.846 0l-.778 4.676h5.095c.948 0 1.881.017 2.8.023v6.505h3.911v-6.436c1.074.022 2.113.03 3.128.03v6.407h3.915v-6.494c6.582-.378 11.189-2.036 11.761-8.217.461-4.981-1.881-7.202-5.617-8.099zm-13.094-8.746c2.21 0 9.152-.7 9.153 3.91 0 4.423-6.943 3.907-9.153 3.907zm0 20.381v-8.619c2.654 0 10.974-.763 10.974 4.308-.002 4.862-8.322 4.309-10.975 4.311z" class="cls-1" data-name="Path 172" transform="translate(161.771 481.198)"/>
                <path id="Path_173" d="M-76.96-456.6a9.559 9.559 0 0 0-9.548-9.548h-10.066l3.438 5.708h6.628a3.845 3.845 0 0 1 3.84 3.841 3.845 3.845 0 0 1-3.84 3.84h-7.753l3.437 5.708h1.224l6.261 10.4h6.663l-6.6-10.959a9.563 9.563 0 0 0 6.316-8.99z" class="cls-1" data-name="Path 173" transform="translate(124.931 472.695)"/>
            </g>
            <path id="Path_174" d="M-158.743-525.2a40.412 40.412 0 0 0-40.366 40.366 40.412 40.412 0 0 0 40.366 40.366 40.412 40.412 0 0 0 40.366-40.366 40.412 40.412 0 0 0-40.366-40.366zm0 74.643a34.316 34.316 0 0 1-34.277-34.277 34.316 34.316 0 0 1 34.277-34.277 34.316 34.316 0 0 1 34.277 34.277 34.316 34.316 0 0 1-34.277 34.278z" class="cls-1" data-name="Path 174" transform="translate(199.109 525.199)"/>
        </g>
        <path id="Path_175" d="M77.784-442.851a9.4 9.4 0 0 1-8.967-8.987 9.363 9.363 0 0 1 9.357-9.733A9.608 9.608 0 0 1 85-458.647l-2.673 4.05-.1.152a3.025 3.025 0 0 0-.16-.269l-.08-.121c-.027-.04-.059-.081-.089-.123-.015-.023-.032-.043-.049-.066l-.1-.13c-.032-.043-.089-.106-.134-.157s-.116-.125-.178-.184a4.584 4.584 0 0 0-.316-.287c-.063-.051-.115-.095-.174-.138s-.089-.064-.134-.1-.068-.047-.1-.068-.089-.059-.134-.085c-.063-.04-.127-.076-.193-.111s-.132-.07-.2-.1-.11-.053-.164-.076l-.072-.03a3.202 3.202 0 0 0-.18-.07.3.3 0 0 0-.036-.013c-.059-.021-.117-.042-.178-.06l-.15-.042c-.05-.013-.077-.023-.117-.032-.058-.013-.117-.028-.177-.04s-.142-.028-.216-.04h-.023c-.074-.01-.148-.019-.224-.026s-.138-.014-.208-.017h-.043c-.074 0-.147-.006-.221-.006a4.636 4.636 0 0 0-4.619 5.023 4.654 4.654 0 0 0 4.4 4.242 4.6 4.6 0 0 0 1.863-.3 5.13 5.13 0 0 0 1.231-.768 7.13 7.13 0 0 0 1.451-1.915l3.8-5.931.045-.08.43-.664a9.376 9.376 0 0 1 2.87-2.9 9.329 9.329 0 0 1 5.4-1.425 9.4 9.4 0 0 1 8.94 8.982 9.364 9.364 0 0 1-9.356 9.737 9.324 9.324 0 0 1-6.791-2.919l.026-.04 2.654-4.048.043-.064.034.055a4.527 4.527 0 0 0 3.939 2.193 4.635 4.635 0 0 0 4.634-4.681 4.663 4.663 0 0 0-4.5-4.586 4.494 4.494 0 0 0-3.891 1.926c-.1.149-.377.622-.377.622l-3.738 6.137-.282.464-.351.577a8.764 8.764 0 0 1-1.664 2.025 9.332 9.332 0 0 1-6.584 2.323zm-28.44-20.678a2.86 2.86 0 0 0 2.862-2.861 2.829 2.829 0 0 0-2.862-2.824 2.852 2.852 0 0 0-2.861 2.824 2.885 2.885 0 0 0 2.861 2.861zm2.41 20.144v-18.186h-4.782v18.186zm10.843.452a5.9 5.9 0 0 0 3.991-1.167l-1.016-3.614a2.613 2.613 0 0 1-1.657.527c-1.054 0-1.657-.866-1.657-2v-8.208h3.69v-4.179h-3.69v-4.97h-4.82v4.97h-3.011v4.179h3.012v9.488c0 3.242 1.807 4.973 5.161 4.973zm47.285-20.6a2.86 2.86 0 0 0 2.862-2.861 2.829 2.829 0 0 0-2.862-2.824 2.852 2.852 0 0 0-2.861 2.824 2.885 2.885 0 0 0 2.861 2.865zm2.41 20.144v-18.186h-4.782v18.186zm21.8 0v-12.839c0-3.539-1.92-5.8-5.911-5.8a8.327 8.327 0 0 0-6.363 2.824v-2.372h-4.782v18.186h4.782v-12.237a5.18 5.18 0 0 1 4.142-2.146c2.033 0 3.351.866 3.351 3.389v10.994zm25.189 0l-5.648-9.563a7.207 7.207 0 0 0 5.5-7.455c0-4.669-3.2-8.1-8.434-8.1h-11.75v25.114h5.351v-8.924h3.916l4.932 8.924zm-9.376-13.63H144.3v-6.777h5.61c2.146 0 3.765 1.28 3.765 3.389s-1.623 3.391-3.769 3.391zm20.558 14.082a11.335 11.335 0 0 0 7.493-2.523l-2.109-3.088a7.745 7.745 0 0 1-4.857 1.807 4.9 4.9 0 0 1-5.234-4.217h13.517v-1.054c0-5.949-3.69-10.015-9.112-10.015a9.256 9.256 0 0 0-9.413 9.526c.001 5.84 4.181 9.567 9.716 9.567zm4.179-11.258h-8.961a4.371 4.371 0 0 1 4.481-4.029 4.212 4.212 0 0 1 4.481 4.033zm29.142 10.806l5.535-18.186h-4.97l-3.389 12.237-3.991-12.237h-4.255l-3.991 12.237-3.389-12.237h-4.97l5.535 18.186h5.121l3.84-12.388 3.84 12.388zm23.608 0v-11.747c0-5.234-3.8-6.89-7.945-6.89a11.931 11.931 0 0 0-7.945 2.862l1.808 3.2a7.652 7.652 0 0 1 5.309-2.146c2.41 0 3.991 1.2 3.991 3.05v2.447a7.481 7.481 0 0 0-5.761-2.222c-2.9 0-6.325 1.619-6.325 5.874 0 4.066 3.426 6.024 6.325 6.024a7.526 7.526 0 0 0 5.761-2.334v1.882zm-8.622-2.786c-1.883 0-3.426-.979-3.426-2.673 0-1.77 1.544-2.749 3.426-2.749a4.783 4.783 0 0 1 3.84 1.581v2.259a4.783 4.783 0 0 1-3.839 1.585zm18.148 2.786V-455.4a6.091 6.091 0 0 1 4.48-2.071 6.357 6.357 0 0 1 1.318.113v-4.669a7.816 7.816 0 0 0-5.8 2.937v-2.485h-4.782v18.186zm26.092 0V-468.5h-4.82v9.262a7 7 0 0 0-5.61-2.786c-4.631 0-8.058 3.614-8.058 9.563 0 6.062 3.464 9.526 8.058 9.526a7.059 7.059 0 0 0 5.61-2.786v2.334zm-8.961-3.8c-2.711 0-4.593-2.146-4.593-5.271 0-3.163 1.882-5.309 4.593-5.309a5.2 5.2 0 0 1 4.141 2.071v6.438a5.2 5.2 0 0 1-4.14 2.072zm20.257 4.255c5.045 0 7.869-2.523 7.869-5.836 0-7.342-10.769-5.083-10.769-7.794 0-1.016 1.13-1.807 2.861-1.807a7.67 7.67 0 0 1 5.384 2.109l1.92-3.276a11.617 11.617 0 0 0-7.342-2.485c-4.782 0-7.455 2.673-7.455 5.723 0 7.154 10.806 4.706 10.806 7.719 0 1.13-.979 1.958-3.05 1.958a10.411 10.411 0 0 1-6.288-2.485l-2.071 3.351a12.242 12.242 0 0 0 8.136 2.823zm-233.131-20a5.178 5.178 0 0 1-2.869 5.629c3.193.766 5.194 2.664 4.8 6.918-.489 5.282-4.426 6.7-10.051 7.022v5.549h-3.346v-5.475c-.867 0-1.755-.006-2.673-.025v5.5h-3.341v-5.559c-.783-.005-1.58-.019-2.39-.02h-4.356l.665-4s2.475.039 2.432 0A1.181 1.181 0 0 0 21.3-448.5v-15.058a1.728 1.728 0 0 0-1.925-1.466c.041-.045-2.43 0-2.43 0v-3.576h4.615v.017c.694 0 1.4-.014 2.129-.029v-5.5h3.344v5.387c.893-.018 1.792-.035 2.672-.035v-5.34h3.346v5.5c4.319.378 7.74 1.707 8.121 5.669zm-14.06 8.206v7.366c2.267 0 9.381.47 9.379-3.684.001-4.336-7.11-3.684-9.378-3.684zm0-10.052v6.681c1.889 0 7.821.441 7.822-3.34.001-3.945-5.937-3.344-7.821-3.344z" class="cls-1" data-name="Path 175" transform="translate(-122.085 -28.872)"/>
    </g>
</svg>
